<?xml version="1.0" encoding="UTF-8"?><svg id="Layer_1" xmlns="http://www.w3.org/2000/svg" viewBox="0 0 3168.77 23.71"><defs><style>.cls-1{fill:#00a14b;}.cls-1,.cls-2,.cls-3,.cls-4,.cls-5,.cls-6{stroke-miterlimit:10;}.cls-1,.cls-2,.cls-3,.cls-4,.cls-5,.cls-6,.cls-7{stroke:#231f20;stroke-width:.25px;}.cls-2{fill:#ffde17;}.cls-3{fill:#f26522;}.cls-4{fill:#7f3f98;}.cls-5{fill:#ed1c24;}.cls-6{fill:#21409a;}.cls-8{font-family:CourierNewPS-BoldItalicMT, 'Courier New';font-size:20px;}</style></defs><text class="cls-8" transform="translate(.12 16.04)"><tspan class="cls-5" x="0" y="0">l</tspan><tspan class="cls-4" x="12" y="0">a</tspan><tspan class="cls-3" x="24" y="0">s</tspan><tspan class="cls-6" x="36.01" y="0">t</tspan><tspan class="cls-7" x="48.01" y="0"> </tspan><tspan class="cls-1" x="60.01" y="0">w</tspan><tspan class="cls-2" x="72.01" y="0">e</tspan><tspan class="cls-5" x="84.01" y="0">e</tspan><tspan class="cls-4" x="96.02" y="0">k</tspan><tspan class="cls-7" x="108.02" y="0"> </tspan><tspan class="cls-6" x="120.02" y="0">(</tspan><tspan class="cls-3" x="132.02" y="0">1</tspan><tspan class="cls-6" x="144.02" y="0">0</tspan><tspan class="cls-5" x="156.03" y="0">/</tspan><tspan class="cls-2" x="168.03" y="0">1</tspan><tspan class="cls-1" x="180.03" y="0">1</tspan><tspan class="cls-6" x="192.03" y="0">/</tspan><tspan class="cls-5" x="204.03" y="0">2</tspan><tspan class="cls-4" x="216.04" y="0">2</tspan><tspan class="cls-6" x="228.04" y="0">)</tspan><tspan class="cls-1" x="240.04" y="0">: </tspan><tspan class="cls-5" x="264.04" y="0">l</tspan><tspan class="cls-4" x="276.04" y="0">a</tspan><tspan class="cls-3" x="288.05" y="0">s</tspan><tspan class="cls-6" x="300.05" y="0">t</tspan><tspan class="cls-7" x="312.05" y="0"> </tspan><tspan class="cls-1" x="324.05" y="0">w</tspan><tspan class="cls-2" x="336.05" y="0">e</tspan><tspan class="cls-5" x="348.06" y="0">e</tspan><tspan class="cls-4" x="360.06" y="0">k</tspan><tspan class="cls-7" x="372.06" y="0"> </tspan><tspan class="cls-6" x="384.06" y="0">(</tspan><tspan class="cls-3" x="396.06" y="0">1</tspan><tspan class="cls-6" x="408.07" y="0">0</tspan><tspan class="cls-5" x="420.07" y="0">/</tspan><tspan class="cls-2" x="432.07" y="0">1</tspan><tspan class="cls-1" x="444.07" y="0">1</tspan><tspan class="cls-6" x="456.07" y="0">/</tspan><tspan class="cls-5" x="468.08" y="0">2</tspan><tspan class="cls-4" x="480.08" y="0">2</tspan><tspan class="cls-6" x="492.08" y="0">)</tspan><tspan class="cls-1" x="504.08" y="0">: </tspan><tspan class="cls-5" x="528.09" y="0">l</tspan><tspan class="cls-4" x="540.09" y="0">a</tspan><tspan class="cls-3" x="552.09" y="0">s</tspan><tspan class="cls-6" x="564.09" y="0">t</tspan><tspan class="cls-7" x="576.09" y="0"> </tspan><tspan class="cls-1" x="588.1" y="0">w</tspan><tspan class="cls-2" x="600.1" y="0">e</tspan><tspan class="cls-5" x="612.1" y="0">e</tspan><tspan class="cls-4" x="624.1" y="0">k</tspan><tspan class="cls-7" x="636.1" y="0"> </tspan><tspan class="cls-6" x="648.11" y="0">(</tspan><tspan class="cls-3" x="660.11" y="0">1</tspan><tspan class="cls-6" x="672.11" y="0">0</tspan><tspan class="cls-5" x="684.11" y="0">/</tspan><tspan class="cls-2" x="696.11" y="0">1</tspan><tspan class="cls-1" x="708.12" y="0">1</tspan><tspan class="cls-6" x="720.12" y="0">/</tspan><tspan class="cls-5" x="732.12" y="0">2</tspan><tspan class="cls-4" x="744.12" y="0">2</tspan><tspan class="cls-6" x="756.12" y="0">)</tspan><tspan class="cls-1" x="768.13" y="0">: </tspan><tspan class="cls-5" x="792.13" y="0">l</tspan><tspan class="cls-4" x="804.13" y="0">a</tspan><tspan class="cls-3" x="816.13" y="0">s</tspan><tspan class="cls-6" x="828.14" y="0">t</tspan><tspan class="cls-7" x="840.14" y="0"> </tspan><tspan class="cls-1" x="852.14" y="0">w</tspan><tspan class="cls-2" x="864.14" y="0">e</tspan><tspan class="cls-5" x="876.14" y="0">e</tspan><tspan class="cls-4" x="888.15" y="0">k</tspan><tspan class="cls-7" x="900.15" y="0"> </tspan><tspan class="cls-6" x="912.15" y="0">(</tspan><tspan class="cls-3" x="924.15" y="0">1</tspan><tspan class="cls-6" x="936.15" y="0">0</tspan><tspan class="cls-5" x="948.15" y="0">/</tspan><tspan class="cls-2" x="960.16" y="0">1</tspan><tspan class="cls-1" x="972.16" y="0">1</tspan><tspan class="cls-6" x="984.16" y="0">/</tspan><tspan class="cls-5" x="996.16" y="0">2</tspan><tspan class="cls-4" x="1008.16" y="0">2</tspan><tspan class="cls-6" x="1020.17" y="0">)</tspan><tspan class="cls-1" x="1032.17" y="0">: </tspan><tspan class="cls-5" x="1056.17" y="0">l</tspan><tspan class="cls-4" x="1068.17" y="0">a</tspan><tspan class="cls-3" x="1080.18" y="0">s</tspan><tspan class="cls-6" x="1092.18" y="0">t</tspan><tspan class="cls-7" x="1104.18" y="0"> </tspan><tspan class="cls-1" x="1116.18" y="0">w</tspan><tspan class="cls-2" x="1128.18" y="0">e</tspan><tspan class="cls-5" x="1140.19" y="0">e</tspan><tspan class="cls-4" x="1152.19" y="0">k</tspan><tspan class="cls-7" x="1164.19" y="0"> </tspan><tspan class="cls-6" x="1176.19" y="0">(</tspan><tspan class="cls-3" x="1188.19" y="0">1</tspan><tspan class="cls-6" x="1200.2" y="0">0</tspan><tspan class="cls-5" x="1212.2" y="0">/</tspan><tspan class="cls-2" x="1224.2" y="0">1</tspan><tspan class="cls-1" x="1236.2" y="0">1</tspan><tspan class="cls-6" x="1248.2" y="0">/</tspan><tspan class="cls-5" x="1260.21" y="0">2</tspan><tspan class="cls-4" x="1272.21" y="0">2</tspan><tspan class="cls-6" x="1284.21" y="0">)</tspan><tspan class="cls-1" x="1296.21" y="0">: </tspan><tspan class="cls-5" x="1320.22" y="0">l</tspan><tspan class="cls-4" x="1332.22" y="0">a</tspan><tspan class="cls-3" x="1344.22" y="0">s</tspan><tspan class="cls-6" x="1356.22" y="0">t</tspan><tspan class="cls-7" x="1368.22" y="0"> </tspan><tspan class="cls-1" x="1380.23" y="0">w</tspan><tspan class="cls-2" x="1392.23" y="0">e</tspan><tspan class="cls-5" x="1404.23" y="0">e</tspan><tspan class="cls-4" x="1416.23" y="0">k</tspan><tspan class="cls-7" x="1428.23" y="0"> </tspan><tspan class="cls-6" x="1440.23" y="0">(</tspan><tspan class="cls-3" x="1452.24" y="0">1</tspan><tspan class="cls-6" x="1464.24" y="0">0</tspan><tspan class="cls-5" x="1476.24" y="0">/</tspan><tspan class="cls-2" x="1488.24" y="0">1</tspan><tspan class="cls-1" x="1500.24" y="0">1</tspan><tspan class="cls-6" x="1512.25" y="0">/</tspan><tspan class="cls-5" x="1524.25" y="0">2</tspan><tspan class="cls-4" x="1536.25" y="0">2</tspan><tspan class="cls-6" x="1548.25" y="0">)</tspan><tspan class="cls-1" x="1560.25" y="0">: </tspan><tspan class="cls-5" x="1584.26" y="0">l</tspan><tspan class="cls-4" x="1596.26" y="0">a</tspan><tspan class="cls-3" x="1608.26" y="0">s</tspan><tspan class="cls-6" x="1620.26" y="0">t</tspan><tspan class="cls-7" x="1632.27" y="0"> </tspan><tspan class="cls-1" x="1644.27" y="0">w</tspan><tspan class="cls-2" x="1656.27" y="0">e</tspan><tspan class="cls-5" x="1668.27" y="0">e</tspan><tspan class="cls-4" x="1680.27" y="0">k</tspan><tspan class="cls-7" x="1692.28" y="0"> </tspan><tspan class="cls-6" x="1704.28" y="0">(</tspan><tspan class="cls-3" x="1716.28" y="0">1</tspan><tspan class="cls-6" x="1728.28" y="0">0</tspan><tspan class="cls-5" x="1740.28" y="0">/</tspan><tspan class="cls-2" x="1752.29" y="0">1</tspan><tspan class="cls-1" x="1764.29" y="0">1</tspan><tspan class="cls-6" x="1776.29" y="0">/</tspan><tspan class="cls-5" x="1788.29" y="0">2</tspan><tspan class="cls-4" x="1800.29" y="0">2</tspan><tspan class="cls-6" x="1812.3" y="0">)</tspan><tspan class="cls-1" x="1824.3" y="0">: </tspan><tspan class="cls-5" x="1848.3" y="0">l</tspan><tspan class="cls-4" x="1860.3" y="0">a</tspan><tspan class="cls-3" x="1872.31" y="0">s</tspan><tspan class="cls-6" x="1884.31" y="0">t</tspan><tspan class="cls-7" x="1896.31" y="0"> </tspan><tspan class="cls-1" x="1908.31" y="0">w</tspan><tspan class="cls-2" x="1920.31" y="0">e</tspan><tspan class="cls-5" x="1932.31" y="0">e</tspan><tspan class="cls-4" x="1944.32" y="0">k</tspan><tspan class="cls-7" x="1956.32" y="0"> </tspan><tspan class="cls-6" x="1968.32" y="0">(</tspan><tspan class="cls-3" x="1980.32" y="0">1</tspan><tspan class="cls-6" x="1992.32" y="0">0</tspan><tspan class="cls-5" x="2004.33" y="0">/</tspan><tspan class="cls-2" x="2016.33" y="0">1</tspan><tspan class="cls-1" x="2028.33" y="0">1</tspan><tspan class="cls-6" x="2040.33" y="0">/</tspan><tspan class="cls-5" x="2052.33" y="0">2</tspan><tspan class="cls-4" x="2064.34" y="0">2</tspan><tspan class="cls-6" x="2076.34" y="0">)</tspan><tspan class="cls-1" x="2088.34" y="0">: </tspan><tspan class="cls-5" x="2112.34" y="0">l</tspan><tspan class="cls-4" x="2124.35" y="0">a</tspan><tspan class="cls-3" x="2136.35" y="0">s</tspan><tspan class="cls-6" x="2148.35" y="0">t</tspan><tspan class="cls-7" x="2160.35" y="0"> </tspan><tspan class="cls-1" x="2172.35" y="0">w</tspan><tspan class="cls-2" x="2184.36" y="0">e</tspan><tspan class="cls-5" x="2196.36" y="0">e</tspan><tspan class="cls-4" x="2208.36" y="0">k</tspan><tspan class="cls-7" x="2220.36" y="0"> </tspan><tspan class="cls-6" x="2232.36" y="0">(</tspan><tspan class="cls-3" x="2244.37" y="0">1</tspan><tspan class="cls-6" x="2256.37" y="0">0</tspan><tspan class="cls-5" x="2268.37" y="0">/</tspan><tspan class="cls-2" x="2280.37" y="0">1</tspan><tspan class="cls-1" x="2292.37" y="0">1</tspan><tspan class="cls-6" x="2304.38" y="0">/</tspan><tspan class="cls-5" x="2316.38" y="0">2</tspan><tspan class="cls-4" x="2328.38" y="0">2</tspan><tspan class="cls-6" x="2340.38" y="0">)</tspan><tspan class="cls-1" x="2352.38" y="0">: </tspan><tspan class="cls-5" x="2376.39" y="0">l</tspan><tspan class="cls-4" x="2388.39" y="0">a</tspan><tspan class="cls-3" x="2400.39" y="0">s</tspan><tspan class="cls-6" x="2412.39" y="0">t</tspan><tspan class="cls-7" x="2424.4" y="0"> </tspan><tspan class="cls-1" x="2436.4" y="0">w</tspan><tspan class="cls-2" x="2448.4" y="0">e</tspan><tspan class="cls-5" x="2460.4" y="0">e</tspan><tspan class="cls-4" x="2472.4" y="0">k</tspan><tspan class="cls-7" x="2484.4" y="0"> </tspan><tspan class="cls-6" x="2496.41" y="0">(</tspan><tspan class="cls-3" x="2508.41" y="0">1</tspan><tspan class="cls-6" x="2520.41" y="0">0</tspan><tspan class="cls-5" x="2532.41" y="0">/</tspan><tspan class="cls-2" x="2544.41" y="0">1</tspan><tspan class="cls-1" x="2556.42" y="0">1</tspan><tspan class="cls-6" x="2568.42" y="0">/</tspan><tspan class="cls-5" x="2580.42" y="0">2</tspan><tspan class="cls-4" x="2592.42" y="0">2</tspan><tspan class="cls-6" x="2604.42" y="0">)</tspan><tspan class="cls-1" x="2616.43" y="0">: </tspan><tspan class="cls-5" x="2640.43" y="0">l</tspan><tspan class="cls-4" x="2652.43" y="0">a</tspan><tspan class="cls-3" x="2664.43" y="0">s</tspan><tspan class="cls-6" x="2676.44" y="0">t</tspan><tspan class="cls-7" x="2688.44" y="0"> </tspan><tspan class="cls-1" x="2700.44" y="0">w</tspan><tspan class="cls-2" x="2712.44" y="0">e</tspan><tspan class="cls-5" x="2724.44" y="0">e</tspan><tspan class="cls-4" x="2736.45" y="0">k</tspan><tspan class="cls-7" x="2748.45" y="0"> </tspan><tspan class="cls-6" x="2760.45" y="0">(</tspan><tspan class="cls-3" x="2772.45" y="0">1</tspan><tspan class="cls-6" x="2784.45" y="0">0</tspan><tspan class="cls-5" x="2796.46" y="0">/</tspan><tspan class="cls-2" x="2808.46" y="0">1</tspan><tspan class="cls-1" x="2820.46" y="0">1</tspan><tspan class="cls-6" x="2832.46" y="0">/</tspan><tspan class="cls-5" x="2844.46" y="0">2</tspan><tspan class="cls-4" x="2856.47" y="0">2</tspan><tspan class="cls-6" x="2868.47" y="0">)</tspan><tspan class="cls-1" x="2880.47" y="0">: </tspan><tspan class="cls-5" x="2904.47" y="0">l</tspan><tspan class="cls-4" x="2916.48" y="0">a</tspan><tspan class="cls-3" x="2928.48" y="0">s</tspan><tspan class="cls-6" x="2940.48" y="0">t</tspan><tspan class="cls-7" x="2952.48" y="0"> </tspan><tspan class="cls-1" x="2964.48" y="0">w</tspan><tspan class="cls-2" x="2976.48" y="0">e</tspan><tspan class="cls-5" x="2988.49" y="0">e</tspan><tspan class="cls-4" x="3000.49" y="0">k</tspan><tspan class="cls-7" x="3012.49" y="0"> </tspan><tspan class="cls-6" x="3024.49" y="0">(</tspan><tspan class="cls-3" x="3036.49" y="0">1</tspan><tspan class="cls-6" x="3048.5" y="0">0</tspan><tspan class="cls-5" x="3060.5" y="0">/</tspan><tspan class="cls-2" x="3072.5" y="0">1</tspan><tspan class="cls-1" x="3084.5" y="0">1</tspan><tspan class="cls-6" x="3096.5" y="0">/</tspan><tspan class="cls-5" x="3108.51" y="0">2</tspan><tspan class="cls-4" x="3120.51" y="0">2</tspan><tspan class="cls-6" x="3132.51" y="0">)</tspan><tspan class="cls-1" x="3144.51" y="0">:</tspan><tspan x="3156.51" y="0"> </tspan></text></svg>